#!OML:ASF I:\Actors\actors\Patient Classification 2\Patient 1\Session 1\actor1.ASF
:FULLY-SPECIFIED
:DEGREES
428
root -0.853751 18.7624 4.37249 4.11642 4.21416 -1.72392
lowerback 8.75294 1.30259 -2.80229
upperback -1.40431 1.35635 -1.15064
thorax -6.42828 0.746295 0.178369
lowerneck -15.7262 -5.83795 -5.6005
upperneck 21.8395 -8.95732 9.01707
head 10.2483 -3.5923 2.88194
rclavicle -5.96354e-016 9.54166e-015
rhumerus 4.5183 18.0201 -33.4477
rradius 87.153
rwrist 41.2683
rhand -40.3563 -47.9762
rfingers 7.12502
rthumb -13.3113 -77.5311
lclavicle -5.96354e-016 9.54166e-015
lhumerus -22.0285 -34.5023 85.5785
lradius 118.204
lwrist 45.2992
lhand -18.2999 -19.4374
lfingers 7.12502
lthumb 7.9809 10.3919
rfemur 0 0 0
rtibia 0
rfoot 0 0
rtoes 0
lfemur -10.7223 -7.9398 -11.3895
ltibia 22.7772
lfoot -18.7985 7.32751
ltoes -55.3503
429
root -0.861982 18.7638 4.37748 4.14402 4.38429 -1.81477
lowerback 8.74853 1.26832 -2.61837
upperback -1.47893 1.32546 -1.2141
thorax -6.49775 0.72414 0.0119171
lowerneck -15.6588 -5.92809 -5.59269
upperneck 21.7748 -9.1139 9.1328
head 10.2319 -3.65442 2.89926
rclavicle -1.80894e-014 3.18055e-015
rhumerus 4.97274 15.5003 -32.4944
rradius 86.7158
rwrist 40.9049
rhand -39.7538 -48.7536
rfingers 7.12502
rthumb -12.7304 -78.3455
lclavicle -1.80894e-014 3.18055e-015
lhumerus -21.9429 -34.7059 85.4703
lradius 118.044
lwrist 45.2057
lhand -18.1658 -19.3696
lfingers 7.12502
lthumb 8.11031 10.4548
rfemur 0 0 0
rtibia 0
rfoot 0 0
rtoes 0
lfemur -10.7672 -8.01539 -11.2429
ltibia 22.7411
lfoot -18.7286 7.25824
ltoes -55.3585
430
root -0.871204 18.766 4.38125 4.19745 4.50282 -1.89792
lowerback 8.78659 1.25109 -2.48336
upperback -1.59137 1.31146 -1.24687
thorax -6.63419 0.713069 -0.0991577
lowerneck -15.5777 -6.03594 -5.68496
upperneck 21.7466 -9.27708 9.26328
head 10.2324 -3.72585 2.93815
rclavicle -4.17448e-015 1.35174e-014
rhumerus 5.69089 12.9546 -31.5219
rradius 86.3024
rwrist 40.5724
rhand -39.654 -48.7576
rfingers 7.12502
rthumb -12.6342 -78.3555
lclavicle -4.17448e-015 1.35174e-014
lhumerus -21.9285 -34.7852 85.5222
lradius 117.912
lwrist 45.1582
lhand -17.7936 -19.2288
lfingers 7.12502
lthumb 8.4695 10.5814
rfemur 0 0 0
rtibia 0
rfoot 0 0
rtoes 0
lfemur -10.8221 -8.19046 -11.1082
ltibia 22.6949
lfoot -18.7125 7.37737
ltoes -55.4333
431
root -0.880136 18.7693 4.38492 4.28225 4.5731 -1.96805
lowerback 8.82755 1.27095 -2.36526
upperback -1.75098 1.34404 -1.28093
thorax -6.82384 0.725656 -0.209976
lowerneck -15.4092 -6.15854 -5.69829
upperneck 21.75 -9.47177 9.33002
head 10.2231 -3.81437 2.93895
rclavicle -5.96354e-016 2.62396e-014
rhumerus 6.44618 10.6601 -30.5846
rradius 86.2189
rwrist 39.7213
rhand -39.6035 -49.6017
rfingers 7.12502
rthumb -12.5855 -79.2026
lclavicle -5.96354e-016 2.62396e-014
lhumerus -22.026 -34.8493 85.7306
lradius 117.801
lwrist 45.1503
lhand -17.6683 -19.1177
lfingers 7.12502
lthumb 8.59047 10.6876
rfemur 0 0 0
rtibia 0
rfoot 0 0
rtoes 0
lfemur -10.8951 -8.38527 -10.989
ltibia 22.6471
lfoot -18.7538 7.54934
ltoes -55.4469
432
root -0.888915 18.772 4.38771 4.38053 4.58315 -2.0775
lowerback 8.661 1.29181 -2.19338
upperback -1.76555 1.39587 -1.29265
thorax -6.73988 0.743821 -0.322405
lowerneck -15.4073 -6.26038 -5.7517
upperneck 21.7371 -9.6513 9.52278
head 10.2484 -3.88017 2.98944
rclavicle -8.64713e-015 -2.54444e-014
rhumerus 7.72054 8.11337 -29.8113
rradius 85.9213
rwrist 39.2258
rhand -39.7107 -49.3084
rfingers 7.12502
rthumb -12.6889 -78.903
lclavicle -8.64713e-015 -2.54444e-014
lhumerus -21.8707 -34.8309 85.8118
lradius 117.67
lwrist 45.0999
lhand -17.9912 -19.1711
lfingers 7.12502
lthumb 8.27884 10.6467
rfemur 0 0 0
rtibia 0
rfoot 0 0
rtoes 0
lfemur -10.9838 -8.4567 -10.827
ltibia 22.6063
lfoot -18.7973 7.68436
ltoes -55.473
433
root -0.896819 18.7749 4.38902 4.45705 4.54648 -2.23975
lowerback 8.57283 1.30133 -1.92424
upperback -1.76321 1.44235 -1.27664
thorax -6.68054 0.756223 -0.460987
lowerneck -15.5164 -6.34744 -5.96283
upperneck 21.7253 -9.79016 9.81287
head 10.3062 -3.92575 3.1042
rclavicle 2.60408e-014 -3.97569e-014
rhumerus 9.41311 5.82812 -29.2239
rradius 85.6245
rwrist 38.6483
rhand -39.3662 -49.471
rfingers 7.12502
rthumb -12.3567 -79.0859
lclavicle 2.60408e-014 -3.97569e-014
lhumerus -21.6962 -34.7102 85.8574
lradius 117.559
lwrist 45.0736
lhand -18.1982 -19.2751
lfingers 7.12502
lthumb 8.07904 10.5505
rfemur 0 0 0
rtibia 0
rfoot 0 0
rtoes 0
lfemur -11.0464 -8.50177 -10.6178
ltibia 22.5746
lfoot -18.8478 7.86518
ltoes -55.6037
434
root -0.903643 18.7795 4.39022 4.5169 4.43878 -2.36947
lowerback 8.54797 1.3525 -1.61972
upperback -1.80421 1.54217 -1.30905
thorax -6.70102 0.792725 -0.680274
lowerneck -15.5468 -6.45084 -6.04219
upperneck 21.6891 -9.93938 9.91956
head 10.3238 -3.98887 3.1316
rclavicle -8.94531e-015 4.77083e-015
rhumerus 11.2024 3.85508 -28.8435
rradius 85.3006
rwrist 38.0276
rhand -39.3761 -49.0087
rfingers 7.12502
rthumb -12.3663 -78.6229
lclavicle -8.94531e-015 4.77083e-015
lhumerus -21.6053 -34.6491 85.9254
lradius 117.464
lwrist 45.1048
lhand -18.1404 -19.2908
lfingers 7.12502
lthumb 8.13486 10.5326
rfemur 0 0 0
rtibia 0
rfoot 0 0
rtoes 0
lfemur -11.0666 -8.5075 -10.4696
ltibia 22.5499
lfoot -18.8714 8.15898
ltoes -55.8579
435
root -0.910766 18.7836 4.39084 4.53727 4.23802 -2.45653
lowerback 8.57684 1.43535 -1.31567
upperback -1.8638 1.68031 -1.37764
thorax -6.76976 0.847029 -0.944719
lowerneck -15.5443 -6.52738 -5.95493
upperneck 21.6738 -10.0537 9.85801
head 10.3201 -4.04154 3.07757
rclavicle 9.64106e-015 -1.03368e-014
rhumerus 13.0904 2.15243 -28.689
rradius 84.9603
rwrist 37.5788
rhand -39.8734 -48.5079
rfingers 7.12502
rthumb -12.8458 -78.0926
lclavicle 9.64106e-015 -1.03368e-014
lhumerus -21.6139 -34.5983 86.0093
lradius 117.388
lwrist 45.11
lhand -18.1318 -19.399
lfingers 7.12502
lthumb 8.14314 10.4241
rfemur 0 0 0
rtibia 0
rfoot 0 0
rtoes 0
lfemur -11.0158 -8.49764 -10.3886
ltibia 22.517
lfoot -18.9108 8.53963
ltoes -56.1168
